<?xml version="1.0" encoding="utf-8"?>
<!-- Generator: Adobe Illustrator 15.0.2, SVG Export Plug-In . SVG Version: 6.00 Build 0)  -->
<!DOCTYPE svg PUBLIC "-//W3C//DTD SVG 1.1//EN" "http://www.w3.org/Graphics/SVG/1.1/DTD/svg11.dtd">
<svg version="1.1" id="Layer_1" xmlns="http://www.w3.org/2000/svg" xmlns:xlink="http://www.w3.org/1999/xlink" x="0px" y="0px"
	 width="24px" height="24px" viewBox="0 0 24 24" enable-background="new 0 0 24 24" xml:space="preserve">
<path id="instagram" d="M22,24H2c-1.104,0-2-0.896-2-2V2c0-1.104,0.896-2,2-2h20c1.104,0,2,0.896,2,2v20C24,23.104,23.104,24,22,24z
	 M22,2H2v9h5.1c0.549-2.706,3.188-4.455,5.895-3.905C14.963,7.494,16.5,9.032,16.9,11H22V2z M9,12c0,1.656,1.343,3,3,3
	c1.656,0,3-1.344,3-3c0-1.657-1.344-3-3-3C10.343,9,9,10.343,9,12L9,12z M22,13h-5.1c-0.55,2.706-3.189,4.455-5.896,3.905
	C9.037,16.506,7.5,14.968,7.1,13H2v9h20V13z M18.5,4C19.328,4,20,4.671,20,5.5S19.328,7,18.5,7S17,6.329,17,5.5S17.672,4,18.5,4
	L18.5,4z"/>
</svg>
